<svg width="40" height="40" viewBox="0 0 40 40" fill="none" xmlns="http://www.w3.org/2000/svg">
<path fill-rule="evenodd" clip-rule="evenodd" d="M20 39.2C25.0921 39.2 29.9757 37.1771 33.5764 33.5764C37.1771 29.9757 39.2 25.0921 39.2 20C39.2 14.9078 37.1771 10.0242 33.5764 6.42354C29.9757 2.82284 25.0921 0.799988 20 0.799988C14.9078 0.799988 10.0242 2.82284 6.42354 6.42354C2.82284 10.0242 0.799988 14.9078 0.799988 20C0.799988 25.0921 2.82284 29.9757 6.42354 33.5764C10.0242 37.1771 14.9078 39.2 20 39.2ZM21.6968 14.4968C22.134 14.0441 22.3759 13.4379 22.3704 12.8086C22.3649 12.1794 22.1125 11.5774 21.6676 11.1324C21.2226 10.6874 20.6206 10.435 19.9913 10.4296C19.3621 10.4241 18.7558 10.666 18.3032 11.1032L11.1032 18.3032C10.6533 18.7533 10.4005 19.3636 10.4005 20C10.4005 20.6364 10.6533 21.2467 11.1032 21.6968L18.3032 28.8968C18.7558 29.334 19.3621 29.5759 19.9913 29.5704C20.6206 29.5649 21.2226 29.3125 21.6676 28.8675C22.1125 28.4226 22.3649 27.8206 22.3704 27.1913C22.3759 26.5621 22.134 25.9558 21.6968 25.5032L18.5936 22.4H27.2C27.8365 22.4 28.447 22.1471 28.897 21.697C29.3471 21.247 29.6 20.6365 29.6 20C29.6 19.3635 29.3471 18.753 28.897 18.3029C28.447 17.8528 27.8365 17.6 27.2 17.6H18.5936L21.6968 14.4968Z" fill="#3F3F46"/>
</svg>
