<svg width="20" height="20" viewBox="0 0 20 20" fill="none" xmlns="http://www.w3.org/2000/svg">
<path d="M1.58579 1.58579C1.21071 1.96086 1 2.46957 1 3V4C1 12.284 7.716 19 16 19H17C17.5304 19 18.0391 18.7893 18.4142 18.4142C18.7893 18.0391 19 17.5304 19 17V13.721C19.0001 13.511 18.934 13.3064 18.8112 13.136C18.6885 12.9657 18.5152 12.8383 18.316 12.772L13.823 11.274C13.5947 11.1981 13.3466 11.2071 13.1244 11.2993C12.9021 11.3915 12.7205 11.5607 12.613 11.776L11.483 14.033C9.03446 12.9267 7.07332 10.9655 5.967 8.517L8.224 7.387C8.43925 7.27945 8.60851 7.0979 8.70072 6.87564C8.79293 6.65339 8.8019 6.40534 8.726 6.177L7.228 1.684C7.16171 1.48496 7.03449 1.3118 6.86436 1.18905C6.69422 1.0663 6.48979 1.00016 6.28 1H3C2.46957 1 1.96086 1.21071 1.58579 1.58579Z" stroke="#3F3F46" stroke-width="2" stroke-linecap="round" stroke-linejoin="round"/>
</svg>
